<svg xmlns="http://www.w3.org/2000/svg" viewBox="0 0 800 500" role="img" aria-labelledby="t d">
  <title id="t">Maintenance and Support</title>
  <desc id="d">Monitoring dashboards and support workflow</desc>
  <defs>
    <linearGradient id="g" x1="0" y1="0" x2="1" y2="1">
      <stop offset="0%" stop-color="#0b132b"/>
      <stop offset="100%" stop-color="#1d4ed8"/>
    </linearGradient>
  </defs>
  <rect width="800" height="500" fill="url(#g)"/>
  <rect x="90" y="100" width="620" height="300" rx="26" fill="#111827" stroke="#93c5fd" stroke-width="3"/>
  <rect x="130" y="140" width="280" height="220" rx="14" fill="#0f172a"/>
  <rect x="430" y="140" width="240" height="100" rx="14" fill="#0f172a"/>
  <rect x="430" y="260" width="240" height="100" rx="14" fill="#0f172a"/>
  <g stroke="#60a5fa" stroke-width="4" fill="none">
    <path d="M150 320 L200 260 L250 280 L320 210 L370 230"/>
    <path d="M450 205 H650"/>
    <path d="M450 325 H650"/>
  </g>
  <g fill="#22d3ee">
    <circle cx="200" cy="260" r="8"/><circle cx="250" cy="280" r="8"/><circle cx="320" cy="210" r="8"/>
  </g>
  <circle cx="680" cy="120" r="26" fill="#22c55e"/>
  <path d="M668 121 l8 8 l16 -16" stroke="#f0fdf4" stroke-width="6" fill="none" stroke-linecap="round" stroke-linejoin="round"/>
</svg>
