<svg xmlns="http://www.w3.org/2000/svg" viewBox="0 0 800 500" role="img" aria-labelledby="t d">
  <title id="t">Network Infrastructure</title>
  <desc id="d">Abstract telecom network and fiber links</desc>
  <defs>
    <linearGradient id="g" x1="0" y1="0" x2="1" y2="1">
      <stop offset="0%" stop-color="#0b3a86"/>
      <stop offset="100%" stop-color="#1f9be0"/>
    </linearGradient>
  </defs>
  <rect width="800" height="500" fill="url(#g)"/>
  <g fill="none" stroke="#a7e2ff" stroke-width="4" opacity="0.9">
    <path d="M120 380 L260 240 L420 310 L620 170"/>
    <path d="M120 180 L280 120 L420 190 L620 90"/>
    <path d="M180 440 L300 320 L460 390 L700 250"/>
  </g>
  <g fill="#ffffff">
    <circle cx="120" cy="380" r="12"/><circle cx="260" cy="240" r="12"/><circle cx="420" cy="310" r="12"/><circle cx="620" cy="170" r="12"/>
    <circle cx="120" cy="180" r="12"/><circle cx="280" cy="120" r="12"/><circle cx="420" cy="190" r="12"/><circle cx="620" cy="90" r="12"/>
  </g>
  <g stroke="#d6f4ff" stroke-width="8" fill="none" opacity="0.85">
    <path d="M100 460 H720"/>
    <path d="M200 460 V320"/>
    <path d="M400 460 V260"/>
    <path d="M620 460 V220"/>
  </g>
</svg>
